<?xml version="1.0" encoding="utf-8" standalone="no"?>
<!DOCTYPE svg PUBLIC "-//W3C//DTD SVG 1.1//EN"
  "http://www.w3.org/Graphics/SVG/1.1/DTD/svg11.dtd">
<svg xmlns:xlink="http://www.w3.org/1999/xlink" width="864pt" height="360pt" viewBox="0 0 864 360" xmlns="http://www.w3.org/2000/svg" version="1.1">
 <metadata>
  <rdf:RDF xmlns:dc="http://purl.org/dc/elements/1.1/" xmlns:cc="http://creativecommons.org/ns#" xmlns:rdf="http://www.w3.org/1999/02/22-rdf-syntax-ns#">
   <cc:Work>
    <dc:type rdf:resource="http://purl.org/dc/dcmitype/StillImage"/>
    <dc:date>2023-07-13T09:09:41.594833</dc:date>
    <dc:format>image/svg+xml</dc:format>
    <dc:creator>
     <cc:Agent>
      <dc:title>Matplotlib v3.7.2, https://matplotlib.org/</dc:title>
     </cc:Agent>
    </dc:creator>
   </cc:Work>
  </rdf:RDF>
 </metadata>
 <defs>
  <style type="text/css">*{stroke-linejoin: round; stroke-linecap: butt}</style>
 </defs>
 <g id="figure_1">
  <g id="patch_1">
   <path d="M 0 360 
L 864 360 
L 864 0 
L 0 0 
L 0 360 
z
" style="fill: none; opacity: 0"/>
  </g>
  <g id="axes_1">
   <g id="patch_2">
    <path d="M 108 320.4 
L 777.6 320.4 
L 777.6 43.2 
L 108 43.2 
L 108 320.4 
z
" style="fill: none; opacity: 0"/>
   </g>
   <g id="matplotlib.axis_1">
    <g id="xtick_1">
     <g id="line2d_1">
      <path d="M 118.963864 320.4 
L 118.963864 43.2 
" clip-path="url(#p62c5298dff)" style="fill: none; stroke-dasharray: 5.12,1.28,0.8,1.28; stroke-dashoffset: 0; stroke: #b0b0b0; stroke-width: 0.8"/>
     </g>
     <g id="line2d_2">
      <defs>
       <path id="m51fd065b1b" d="M 0 0 
L 0 3.5 
" style="stroke: #a9a9a9; stroke-width: 0.8"/>
      </defs>
      <g>
       <use xlink:href="#m51fd065b1b" x="118.963864" y="320.4" style="fill: #a9a9a9; stroke: #a9a9a9; stroke-width: 0.8"/>
      </g>
     </g>
     <g id="text_1">
      <!-- 2021-07 -->
      <g style="fill: #a9a9a9" transform="translate(98.072458 334.998438) scale(0.1 -0.1)">
       <defs>
        <path id="DejaVuSans-32" d="M 1228 531 
L 3431 531 
L 3431 0 
L 469 0 
L 469 531 
Q 828 903 1448 1529 
Q 2069 2156 2228 2338 
Q 2531 2678 2651 2914 
Q 2772 3150 2772 3378 
Q 2772 3750 2511 3984 
Q 2250 4219 1831 4219 
Q 1534 4219 1204 4116 
Q 875 4013 500 3803 
L 500 4441 
Q 881 4594 1212 4672 
Q 1544 4750 1819 4750 
Q 2544 4750 2975 4387 
Q 3406 4025 3406 3419 
Q 3406 3131 3298 2873 
Q 3191 2616 2906 2266 
Q 2828 2175 2409 1742 
Q 1991 1309 1228 531 
z
" transform="scale(0.015625)"/>
        <path id="DejaVuSans-30" d="M 2034 4250 
Q 1547 4250 1301 3770 
Q 1056 3291 1056 2328 
Q 1056 1369 1301 889 
Q 1547 409 2034 409 
Q 2525 409 2770 889 
Q 3016 1369 3016 2328 
Q 3016 3291 2770 3770 
Q 2525 4250 2034 4250 
z
M 2034 4750 
Q 2819 4750 3233 4129 
Q 3647 3509 3647 2328 
Q 3647 1150 3233 529 
Q 2819 -91 2034 -91 
Q 1250 -91 836 529 
Q 422 1150 422 2328 
Q 422 3509 836 4129 
Q 1250 4750 2034 4750 
z
" transform="scale(0.015625)"/>
        <path id="DejaVuSans-31" d="M 794 531 
L 1825 531 
L 1825 4091 
L 703 3866 
L 703 4441 
L 1819 4666 
L 2450 4666 
L 2450 531 
L 3481 531 
L 3481 0 
L 794 0 
L 794 531 
z
" transform="scale(0.015625)"/>
        <path id="DejaVuSans-2d" d="M 313 2009 
L 1997 2009 
L 1997 1497 
L 313 1497 
L 313 2009 
z
" transform="scale(0.015625)"/>
        <path id="DejaVuSans-37" d="M 525 4666 
L 3525 4666 
L 3525 4397 
L 1831 0 
L 1172 0 
L 2766 4134 
L 525 4134 
L 525 4666 
z
" transform="scale(0.015625)"/>
       </defs>
       <use xlink:href="#DejaVuSans-32"/>
       <use xlink:href="#DejaVuSans-30" x="63.623047"/>
       <use xlink:href="#DejaVuSans-32" x="127.246094"/>
       <use xlink:href="#DejaVuSans-31" x="190.869141"/>
       <use xlink:href="#DejaVuSans-2d" x="254.492188"/>
       <use xlink:href="#DejaVuSans-30" x="290.576172"/>
       <use xlink:href="#DejaVuSans-37" x="354.199219"/>
      </g>
     </g>
    </g>
    <g id="xtick_2">
     <g id="line2d_3">
      <path d="M 196.853863 320.4 
L 196.853863 43.2 
" clip-path="url(#p62c5298dff)" style="fill: none; stroke-dasharray: 5.12,1.28,0.8,1.28; stroke-dashoffset: 0; stroke: #b0b0b0; stroke-width: 0.8"/>
     </g>
     <g id="line2d_4">
      <g>
       <use xlink:href="#m51fd065b1b" x="196.853863" y="320.4" style="fill: #a9a9a9; stroke: #a9a9a9; stroke-width: 0.8"/>
      </g>
     </g>
     <g id="text_2">
      <!-- 2021-10 -->
      <g style="fill: #a9a9a9" transform="translate(175.962456 334.998438) scale(0.1 -0.1)">
       <use xlink:href="#DejaVuSans-32"/>
       <use xlink:href="#DejaVuSans-30" x="63.623047"/>
       <use xlink:href="#DejaVuSans-32" x="127.246094"/>
       <use xlink:href="#DejaVuSans-31" x="190.869141"/>
       <use xlink:href="#DejaVuSans-2d" x="254.492188"/>
       <use xlink:href="#DejaVuSans-31" x="290.576172"/>
       <use xlink:href="#DejaVuSans-30" x="354.199219"/>
      </g>
     </g>
    </g>
    <g id="xtick_3">
     <g id="line2d_5">
      <path d="M 274.743861 320.4 
L 274.743861 43.2 
" clip-path="url(#p62c5298dff)" style="fill: none; stroke-dasharray: 5.12,1.28,0.8,1.28; stroke-dashoffset: 0; stroke: #b0b0b0; stroke-width: 0.8"/>
     </g>
     <g id="line2d_6">
      <g>
       <use xlink:href="#m51fd065b1b" x="274.743861" y="320.4" style="fill: #a9a9a9; stroke: #a9a9a9; stroke-width: 0.8"/>
      </g>
     </g>
     <g id="text_3">
      <!-- 2022-01 -->
      <g style="fill: #a9a9a9" transform="translate(253.852455 334.998438) scale(0.1 -0.1)">
       <use xlink:href="#DejaVuSans-32"/>
       <use xlink:href="#DejaVuSans-30" x="63.623047"/>
       <use xlink:href="#DejaVuSans-32" x="127.246094"/>
       <use xlink:href="#DejaVuSans-32" x="190.869141"/>
       <use xlink:href="#DejaVuSans-2d" x="254.492188"/>
       <use xlink:href="#DejaVuSans-30" x="290.576172"/>
       <use xlink:href="#DejaVuSans-31" x="354.199219"/>
      </g>
     </g>
    </g>
    <g id="xtick_4">
     <g id="line2d_7">
      <path d="M 350.940599 320.4 
L 350.940599 43.2 
" clip-path="url(#p62c5298dff)" style="fill: none; stroke-dasharray: 5.12,1.28,0.8,1.28; stroke-dashoffset: 0; stroke: #b0b0b0; stroke-width: 0.8"/>
     </g>
     <g id="line2d_8">
      <g>
       <use xlink:href="#m51fd065b1b" x="350.940599" y="320.4" style="fill: #a9a9a9; stroke: #a9a9a9; stroke-width: 0.8"/>
      </g>
     </g>
     <g id="text_4">
      <!-- 2022-04 -->
      <g style="fill: #a9a9a9" transform="translate(330.049193 334.998438) scale(0.1 -0.1)">
       <defs>
        <path id="DejaVuSans-34" d="M 2419 4116 
L 825 1625 
L 2419 1625 
L 2419 4116 
z
M 2253 4666 
L 3047 4666 
L 3047 1625 
L 3713 1625 
L 3713 1100 
L 3047 1100 
L 3047 0 
L 2419 0 
L 2419 1100 
L 313 1100 
L 313 1709 
L 2253 4666 
z
" transform="scale(0.015625)"/>
       </defs>
       <use xlink:href="#DejaVuSans-32"/>
       <use xlink:href="#DejaVuSans-30" x="63.623047"/>
       <use xlink:href="#DejaVuSans-32" x="127.246094"/>
       <use xlink:href="#DejaVuSans-32" x="190.869141"/>
       <use xlink:href="#DejaVuSans-2d" x="254.492188"/>
       <use xlink:href="#DejaVuSans-30" x="290.576172"/>
       <use xlink:href="#DejaVuSans-34" x="354.199219"/>
      </g>
     </g>
    </g>
    <g id="xtick_5">
     <g id="line2d_9">
      <path d="M 427.983968 320.4 
L 427.983968 43.2 
" clip-path="url(#p62c5298dff)" style="fill: none; stroke-dasharray: 5.12,1.28,0.8,1.28; stroke-dashoffset: 0; stroke: #b0b0b0; stroke-width: 0.8"/>
     </g>
     <g id="line2d_10">
      <g>
       <use xlink:href="#m51fd065b1b" x="427.983968" y="320.4" style="fill: #a9a9a9; stroke: #a9a9a9; stroke-width: 0.8"/>
      </g>
     </g>
     <g id="text_5">
      <!-- 2022-07 -->
      <g style="fill: #a9a9a9" transform="translate(407.092561 334.998438) scale(0.1 -0.1)">
       <use xlink:href="#DejaVuSans-32"/>
       <use xlink:href="#DejaVuSans-30" x="63.623047"/>
       <use xlink:href="#DejaVuSans-32" x="127.246094"/>
       <use xlink:href="#DejaVuSans-32" x="190.869141"/>
       <use xlink:href="#DejaVuSans-2d" x="254.492188"/>
       <use xlink:href="#DejaVuSans-30" x="290.576172"/>
       <use xlink:href="#DejaVuSans-37" x="354.199219"/>
      </g>
     </g>
    </g>
    <g id="xtick_6">
     <g id="line2d_11">
      <path d="M 505.873966 320.4 
L 505.873966 43.2 
" clip-path="url(#p62c5298dff)" style="fill: none; stroke-dasharray: 5.12,1.28,0.8,1.28; stroke-dashoffset: 0; stroke: #b0b0b0; stroke-width: 0.8"/>
     </g>
     <g id="line2d_12">
      <g>
       <use xlink:href="#m51fd065b1b" x="505.873966" y="320.4" style="fill: #a9a9a9; stroke: #a9a9a9; stroke-width: 0.8"/>
      </g>
     </g>
     <g id="text_6">
      <!-- 2022-10 -->
      <g style="fill: #a9a9a9" transform="translate(484.98256 334.998438) scale(0.1 -0.1)">
       <use xlink:href="#DejaVuSans-32"/>
       <use xlink:href="#DejaVuSans-30" x="63.623047"/>
       <use xlink:href="#DejaVuSans-32" x="127.246094"/>
       <use xlink:href="#DejaVuSans-32" x="190.869141"/>
       <use xlink:href="#DejaVuSans-2d" x="254.492188"/>
       <use xlink:href="#DejaVuSans-31" x="290.576172"/>
       <use xlink:href="#DejaVuSans-30" x="354.199219"/>
      </g>
     </g>
    </g>
    <g id="xtick_7">
     <g id="line2d_13">
      <path d="M 583.763965 320.4 
L 583.763965 43.2 
" clip-path="url(#p62c5298dff)" style="fill: none; stroke-dasharray: 5.12,1.28,0.8,1.28; stroke-dashoffset: 0; stroke: #b0b0b0; stroke-width: 0.8"/>
     </g>
     <g id="line2d_14">
      <g>
       <use xlink:href="#m51fd065b1b" x="583.763965" y="320.4" style="fill: #a9a9a9; stroke: #a9a9a9; stroke-width: 0.8"/>
      </g>
     </g>
     <g id="text_7">
      <!-- 2023-01 -->
      <g style="fill: #a9a9a9" transform="translate(562.872559 334.998438) scale(0.1 -0.1)">
       <defs>
        <path id="DejaVuSans-33" d="M 2597 2516 
Q 3050 2419 3304 2112 
Q 3559 1806 3559 1356 
Q 3559 666 3084 287 
Q 2609 -91 1734 -91 
Q 1441 -91 1130 -33 
Q 819 25 488 141 
L 488 750 
Q 750 597 1062 519 
Q 1375 441 1716 441 
Q 2309 441 2620 675 
Q 2931 909 2931 1356 
Q 2931 1769 2642 2001 
Q 2353 2234 1838 2234 
L 1294 2234 
L 1294 2753 
L 1863 2753 
Q 2328 2753 2575 2939 
Q 2822 3125 2822 3475 
Q 2822 3834 2567 4026 
Q 2313 4219 1838 4219 
Q 1578 4219 1281 4162 
Q 984 4106 628 3988 
L 628 4550 
Q 988 4650 1302 4700 
Q 1616 4750 1894 4750 
Q 2613 4750 3031 4423 
Q 3450 4097 3450 3541 
Q 3450 3153 3228 2886 
Q 3006 2619 2597 2516 
z
" transform="scale(0.015625)"/>
       </defs>
       <use xlink:href="#DejaVuSans-32"/>
       <use xlink:href="#DejaVuSans-30" x="63.623047"/>
       <use xlink:href="#DejaVuSans-32" x="127.246094"/>
       <use xlink:href="#DejaVuSans-33" x="190.869141"/>
       <use xlink:href="#DejaVuSans-2d" x="254.492188"/>
       <use xlink:href="#DejaVuSans-30" x="290.576172"/>
       <use xlink:href="#DejaVuSans-31" x="354.199219"/>
      </g>
     </g>
    </g>
    <g id="xtick_8">
     <g id="line2d_15">
      <path d="M 659.960703 320.4 
L 659.960703 43.2 
" clip-path="url(#p62c5298dff)" style="fill: none; stroke-dasharray: 5.12,1.28,0.8,1.28; stroke-dashoffset: 0; stroke: #b0b0b0; stroke-width: 0.8"/>
     </g>
     <g id="line2d_16">
      <g>
       <use xlink:href="#m51fd065b1b" x="659.960703" y="320.4" style="fill: #a9a9a9; stroke: #a9a9a9; stroke-width: 0.8"/>
      </g>
     </g>
     <g id="text_8">
      <!-- 2023-04 -->
      <g style="fill: #a9a9a9" transform="translate(639.069297 334.998438) scale(0.1 -0.1)">
       <use xlink:href="#DejaVuSans-32"/>
       <use xlink:href="#DejaVuSans-30" x="63.623047"/>
       <use xlink:href="#DejaVuSans-32" x="127.246094"/>
       <use xlink:href="#DejaVuSans-33" x="190.869141"/>
       <use xlink:href="#DejaVuSans-2d" x="254.492188"/>
       <use xlink:href="#DejaVuSans-30" x="290.576172"/>
       <use xlink:href="#DejaVuSans-34" x="354.199219"/>
      </g>
     </g>
    </g>
    <g id="xtick_9">
     <g id="line2d_17">
      <path d="M 737.004071 320.4 
L 737.004071 43.2 
" clip-path="url(#p62c5298dff)" style="fill: none; stroke-dasharray: 5.12,1.28,0.8,1.28; stroke-dashoffset: 0; stroke: #b0b0b0; stroke-width: 0.8"/>
     </g>
     <g id="line2d_18">
      <g>
       <use xlink:href="#m51fd065b1b" x="737.004071" y="320.4" style="fill: #a9a9a9; stroke: #a9a9a9; stroke-width: 0.8"/>
      </g>
     </g>
     <g id="text_9">
      <!-- 2023-07 -->
      <g style="fill: #a9a9a9" transform="translate(716.112665 334.998438) scale(0.1 -0.1)">
       <use xlink:href="#DejaVuSans-32"/>
       <use xlink:href="#DejaVuSans-30" x="63.623047"/>
       <use xlink:href="#DejaVuSans-32" x="127.246094"/>
       <use xlink:href="#DejaVuSans-33" x="190.869141"/>
       <use xlink:href="#DejaVuSans-2d" x="254.492188"/>
       <use xlink:href="#DejaVuSans-30" x="290.576172"/>
       <use xlink:href="#DejaVuSans-37" x="354.199219"/>
      </g>
     </g>
    </g>
   </g>
   <g id="matplotlib.axis_2">
    <g id="ytick_1">
     <g id="line2d_19">
      <path d="M 108 307.855203 
L 777.6 307.855203 
" clip-path="url(#p62c5298dff)" style="fill: none; stroke-dasharray: 5.12,1.28,0.8,1.28; stroke-dashoffset: 0; stroke: #b0b0b0; stroke-width: 0.8"/>
     </g>
     <g id="line2d_20">
      <defs>
       <path id="m081db07218" d="M 0 0 
L -3.5 0 
" style="stroke: #a9a9a9; stroke-width: 0.8"/>
      </defs>
      <g>
       <use xlink:href="#m081db07218" x="108" y="307.855203" style="fill: #a9a9a9; stroke: #a9a9a9; stroke-width: 0.8"/>
      </g>
     </g>
     <g id="text_10">
      <!-- 0 -->
      <g style="fill: #a9a9a9" transform="translate(94.6375 311.654421) scale(0.1 -0.1)">
       <use xlink:href="#DejaVuSans-30"/>
      </g>
     </g>
    </g>
    <g id="ytick_2">
     <g id="line2d_21">
      <path d="M 108 274.733625 
L 777.6 274.733625 
" clip-path="url(#p62c5298dff)" style="fill: none; stroke-dasharray: 5.12,1.28,0.8,1.28; stroke-dashoffset: 0; stroke: #b0b0b0; stroke-width: 0.8"/>
     </g>
     <g id="line2d_22">
      <g>
       <use xlink:href="#m081db07218" x="108" y="274.733625" style="fill: #a9a9a9; stroke: #a9a9a9; stroke-width: 0.8"/>
      </g>
     </g>
     <g id="text_11">
      <!-- 600 -->
      <g style="fill: #a9a9a9" transform="translate(81.9125 278.532844) scale(0.1 -0.1)">
       <defs>
        <path id="DejaVuSans-36" d="M 2113 2584 
Q 1688 2584 1439 2293 
Q 1191 2003 1191 1497 
Q 1191 994 1439 701 
Q 1688 409 2113 409 
Q 2538 409 2786 701 
Q 3034 994 3034 1497 
Q 3034 2003 2786 2293 
Q 2538 2584 2113 2584 
z
M 3366 4563 
L 3366 3988 
Q 3128 4100 2886 4159 
Q 2644 4219 2406 4219 
Q 1781 4219 1451 3797 
Q 1122 3375 1075 2522 
Q 1259 2794 1537 2939 
Q 1816 3084 2150 3084 
Q 2853 3084 3261 2657 
Q 3669 2231 3669 1497 
Q 3669 778 3244 343 
Q 2819 -91 2113 -91 
Q 1303 -91 875 529 
Q 447 1150 447 2328 
Q 447 3434 972 4092 
Q 1497 4750 2381 4750 
Q 2619 4750 2861 4703 
Q 3103 4656 3366 4563 
z
" transform="scale(0.015625)"/>
       </defs>
       <use xlink:href="#DejaVuSans-36"/>
       <use xlink:href="#DejaVuSans-30" x="63.623047"/>
       <use xlink:href="#DejaVuSans-30" x="127.246094"/>
      </g>
     </g>
    </g>
    <g id="ytick_3">
     <g id="line2d_23">
      <path d="M 108 241.612048 
L 777.6 241.612048 
" clip-path="url(#p62c5298dff)" style="fill: none; stroke-dasharray: 5.12,1.28,0.8,1.28; stroke-dashoffset: 0; stroke: #b0b0b0; stroke-width: 0.8"/>
     </g>
     <g id="line2d_24">
      <g>
       <use xlink:href="#m081db07218" x="108" y="241.612048" style="fill: #a9a9a9; stroke: #a9a9a9; stroke-width: 0.8"/>
      </g>
     </g>
     <g id="text_12">
      <!-- 1200 -->
      <g style="fill: #a9a9a9" transform="translate(75.55 245.411267) scale(0.1 -0.1)">
       <use xlink:href="#DejaVuSans-31"/>
       <use xlink:href="#DejaVuSans-32" x="63.623047"/>
       <use xlink:href="#DejaVuSans-30" x="127.246094"/>
       <use xlink:href="#DejaVuSans-30" x="190.869141"/>
      </g>
     </g>
    </g>
    <g id="ytick_4">
     <g id="line2d_25">
      <path d="M 108 208.490471 
L 777.6 208.490471 
" clip-path="url(#p62c5298dff)" style="fill: none; stroke-dasharray: 5.12,1.28,0.8,1.28; stroke-dashoffset: 0; stroke: #b0b0b0; stroke-width: 0.8"/>
     </g>
     <g id="line2d_26">
      <g>
       <use xlink:href="#m081db07218" x="108" y="208.490471" style="fill: #a9a9a9; stroke: #a9a9a9; stroke-width: 0.8"/>
      </g>
     </g>
     <g id="text_13">
      <!-- 1800 -->
      <g style="fill: #a9a9a9" transform="translate(75.55 212.28969) scale(0.1 -0.1)">
       <defs>
        <path id="DejaVuSans-38" d="M 2034 2216 
Q 1584 2216 1326 1975 
Q 1069 1734 1069 1313 
Q 1069 891 1326 650 
Q 1584 409 2034 409 
Q 2484 409 2743 651 
Q 3003 894 3003 1313 
Q 3003 1734 2745 1975 
Q 2488 2216 2034 2216 
z
M 1403 2484 
Q 997 2584 770 2862 
Q 544 3141 544 3541 
Q 544 4100 942 4425 
Q 1341 4750 2034 4750 
Q 2731 4750 3128 4425 
Q 3525 4100 3525 3541 
Q 3525 3141 3298 2862 
Q 3072 2584 2669 2484 
Q 3125 2378 3379 2068 
Q 3634 1759 3634 1313 
Q 3634 634 3220 271 
Q 2806 -91 2034 -91 
Q 1263 -91 848 271 
Q 434 634 434 1313 
Q 434 1759 690 2068 
Q 947 2378 1403 2484 
z
M 1172 3481 
Q 1172 3119 1398 2916 
Q 1625 2713 2034 2713 
Q 2441 2713 2670 2916 
Q 2900 3119 2900 3481 
Q 2900 3844 2670 4047 
Q 2441 4250 2034 4250 
Q 1625 4250 1398 4047 
Q 1172 3844 1172 3481 
z
" transform="scale(0.015625)"/>
       </defs>
       <use xlink:href="#DejaVuSans-31"/>
       <use xlink:href="#DejaVuSans-38" x="63.623047"/>
       <use xlink:href="#DejaVuSans-30" x="127.246094"/>
       <use xlink:href="#DejaVuSans-30" x="190.869141"/>
      </g>
     </g>
    </g>
    <g id="ytick_5">
     <g id="line2d_27">
      <path d="M 108 175.368894 
L 777.6 175.368894 
" clip-path="url(#p62c5298dff)" style="fill: none; stroke-dasharray: 5.12,1.28,0.8,1.28; stroke-dashoffset: 0; stroke: #b0b0b0; stroke-width: 0.8"/>
     </g>
     <g id="line2d_28">
      <g>
       <use xlink:href="#m081db07218" x="108" y="175.368894" style="fill: #a9a9a9; stroke: #a9a9a9; stroke-width: 0.8"/>
      </g>
     </g>
     <g id="text_14">
      <!-- 2400 -->
      <g style="fill: #a9a9a9" transform="translate(75.55 179.168113) scale(0.1 -0.1)">
       <use xlink:href="#DejaVuSans-32"/>
       <use xlink:href="#DejaVuSans-34" x="63.623047"/>
       <use xlink:href="#DejaVuSans-30" x="127.246094"/>
       <use xlink:href="#DejaVuSans-30" x="190.869141"/>
      </g>
     </g>
    </g>
    <g id="ytick_6">
     <g id="line2d_29">
      <path d="M 108 142.247317 
L 777.6 142.247317 
" clip-path="url(#p62c5298dff)" style="fill: none; stroke-dasharray: 5.12,1.28,0.8,1.28; stroke-dashoffset: 0; stroke: #b0b0b0; stroke-width: 0.8"/>
     </g>
     <g id="line2d_30">
      <g>
       <use xlink:href="#m081db07218" x="108" y="142.247317" style="fill: #a9a9a9; stroke: #a9a9a9; stroke-width: 0.8"/>
      </g>
     </g>
     <g id="text_15">
      <!-- 3000 -->
      <g style="fill: #a9a9a9" transform="translate(75.55 146.046535) scale(0.1 -0.1)">
       <use xlink:href="#DejaVuSans-33"/>
       <use xlink:href="#DejaVuSans-30" x="63.623047"/>
       <use xlink:href="#DejaVuSans-30" x="127.246094"/>
       <use xlink:href="#DejaVuSans-30" x="190.869141"/>
      </g>
     </g>
    </g>
    <g id="ytick_7">
     <g id="line2d_31">
      <path d="M 108 109.125739 
L 777.6 109.125739 
" clip-path="url(#p62c5298dff)" style="fill: none; stroke-dasharray: 5.12,1.28,0.8,1.28; stroke-dashoffset: 0; stroke: #b0b0b0; stroke-width: 0.8"/>
     </g>
     <g id="line2d_32">
      <g>
       <use xlink:href="#m081db07218" x="108" y="109.125739" style="fill: #a9a9a9; stroke: #a9a9a9; stroke-width: 0.8"/>
      </g>
     </g>
     <g id="text_16">
      <!-- 3600 -->
      <g style="fill: #a9a9a9" transform="translate(75.55 112.924958) scale(0.1 -0.1)">
       <use xlink:href="#DejaVuSans-33"/>
       <use xlink:href="#DejaVuSans-36" x="63.623047"/>
       <use xlink:href="#DejaVuSans-30" x="127.246094"/>
       <use xlink:href="#DejaVuSans-30" x="190.869141"/>
      </g>
     </g>
    </g>
    <g id="ytick_8">
     <g id="line2d_33">
      <path d="M 108 76.004162 
L 777.6 76.004162 
" clip-path="url(#p62c5298dff)" style="fill: none; stroke-dasharray: 5.12,1.28,0.8,1.28; stroke-dashoffset: 0; stroke: #b0b0b0; stroke-width: 0.8"/>
     </g>
     <g id="line2d_34">
      <g>
       <use xlink:href="#m081db07218" x="108" y="76.004162" style="fill: #a9a9a9; stroke: #a9a9a9; stroke-width: 0.8"/>
      </g>
     </g>
     <g id="text_17">
      <!-- 4200 -->
      <g style="fill: #a9a9a9" transform="translate(75.55 79.803381) scale(0.1 -0.1)">
       <use xlink:href="#DejaVuSans-34"/>
       <use xlink:href="#DejaVuSans-32" x="63.623047"/>
       <use xlink:href="#DejaVuSans-30" x="127.246094"/>
       <use xlink:href="#DejaVuSans-30" x="190.869141"/>
      </g>
     </g>
    </g>
   </g>
   <g id="line2d_35">
    <path d="M 138.436364 307.689595 
L 143.516146 307.303176 
L 144.362777 306.971961 
L 146.902668 306.695947 
L 152.829081 305.647097 
L 157.062233 305.260679 
L 157.908863 304.874261 
L 158.755494 304.65345 
L 159.602124 303.659803 
L 160.448755 303.107777 
L 161.295385 301.341292 
L 162.142015 301.230887 
L 162.988646 300.623658 
L 164.681907 299.850821 
L 166.375168 298.636364 
L 167.221798 297.863527 
L 168.915059 297.09069 
L 169.761689 296.759474 
L 170.60832 296.152245 
L 173.994841 294.77218 
L 174.841472 293.447317 
L 175.688102 292.784885 
L 177.381363 291.901643 
L 185.847667 290.742388 
L 186.694298 290.355969 
L 192.620711 289.914348 
L 194.313971 289.472727 
L 196.007232 289.086309 
L 202.780276 288.203067 
L 203.626906 287.761446 
L 204.473536 287.651041 
L 205.320167 287.319825 
L 207.013428 287.043812 
L 207.860058 286.988609 
L 208.706689 286.712596 
L 212.09321 286.215772 
L 213.786471 285.774151 
L 216.326362 285.553341 
L 218.019623 285.387733 
L 218.866254 285.166922 
L 219.712884 285.11172 
L 222.252775 284.394085 
L 227.332558 283.676451 
L 228.179188 283.400438 
L 229.025819 282.296386 
L 231.56571 281.413143 
L 234.105601 280.750712 
L 234.952232 280.364294 
L 235.798862 280.309091 
L 240.032014 279.205038 
L 241.725275 279.094633 
L 242.571905 278.984228 
L 245.111797 278.266594 
L 248.498318 277.493757 
L 249.344949 277.162541 
L 250.191579 277.052136 
L 251.03821 276.665717 
L 259.504514 275.45126 
L 263.737666 274.292004 
L 264.584296 273.795181 
L 267.970818 272.911939 
L 269.664079 271.973494 
L 270.510709 271.421468 
L 271.35734 271.311062 
L 272.20397 271.035049 
L 274.743861 270.593428 
L 275.590492 270.20701 
L 277.283753 269.930997 
L 278.977014 269.15816 
L 283.210166 268.164513 
L 285.750057 267.557284 
L 286.596687 267.226068 
L 287.443318 267.06046 
L 288.289948 266.729244 
L 289.136579 266.618839 
L 289.983209 266.232421 
L 290.829839 266.01161 
L 292.5231 265.901205 
L 294.216361 265.349179 
L 295.909622 265.238773 
L 296.756252 264.852355 
L 300.142774 264.300329 
L 303.529296 264.024315 
L 304.375926 263.858708 
L 306.069187 263.085871 
L 315.382122 259.387295 
L 316.228752 258.945674 
L 317.075382 258.062432 
L 317.922013 256.737568 
L 318.768643 255.688719 
L 319.615274 255.467908 
L 320.461904 255.467908 
L 322.155165 254.25345 
L 323.001795 254.03264 
L 323.848426 253.591019 
L 324.695056 253.425411 
L 325.541687 252.707777 
L 326.388317 252.486966 
L 328.928208 251.327711 
L 329.774839 250.334064 
L 330.621469 249.064403 
L 331.4681 248.567579 
L 332.31473 247.242716 
L 333.16136 246.414677 
L 334.007991 246.028258 
L 334.854621 245.807448 
L 336.547882 244.813801 
L 337.394513 244.427382 
L 340.781034 241.998467 
L 341.627665 240.839211 
L 342.474295 238.962322 
L 343.320926 237.747864 
L 344.167556 237.140635 
L 345.014186 236.809419 
L 348.400708 234.049288 
L 350.093969 232.83483 
L 350.940599 232.117196 
L 351.78723 230.957941 
L 352.63386 230.185104 
L 355.173751 228.473823 
L 356.867012 227.36977 
L 357.713643 226.652136 
L 358.560273 226.431325 
L 361.100164 225.161665 
L 362.793425 224.22322 
L 363.640056 223.892004 
L 365.333316 222.401533 
L 366.179947 221.407886 
L 367.873208 220.303834 
L 368.719838 220.083023 
L 369.566469 219.641402 
L 370.413099 219.034173 
L 372.10636 218.150931 
L 372.95299 218.040526 
L 374.646251 217.157284 
L 375.492882 216.715663 
L 376.339512 215.887623 
L 377.186142 215.3908 
L 378.032773 215.114786 
L 378.879403 214.56276 
L 382.265925 212.906681 
L 383.112555 212.189047 
L 386.499077 211.084995 
L 387.345707 210.532968 
L 388.192338 210.36736 
L 389.885599 209.815334 
L 392.42549 208.876889 
L 394.965381 207.993647 
L 396.658642 207.717634 
L 398.351903 206.337568 
L 400.045164 205.564732 
L 402.585055 204.184666 
L 404.278316 203.743045 
L 405.124946 203.246221 
L 405.971577 203.025411 
L 408.511468 201.479737 
L 411.051359 200.927711 
L 413.59125 200.044469 
L 415.284511 199.106024 
L 416.131142 198.995619 
L 416.977772 198.719606 
L 418.671033 198.38839 
L 421.210924 196.621906 
L 423.750816 196.06988 
L 424.597446 195.793866 
L 425.444076 195.186637 
L 430.523859 193.640964 
L 431.370489 193.585761 
L 437.296902 191.543264 
L 438.143533 191.156846 
L 440.683424 190.604819 
L 442.376685 190.218401 
L 443.223315 189.831982 
L 444.069946 189.666375 
L 446.609837 188.562322 
L 449.149728 187.292662 
L 449.996359 186.740635 
L 450.842989 186.519825 
L 453.38288 185.250164 
L 455.076141 184.863746 
L 456.769402 184.035706 
L 458.462663 183.594085 
L 459.309293 183.48368 
L 460.155924 182.931654 
L 461.002554 182.545235 
L 461.849184 182.379628 
L 463.542445 181.717196 
L 464.389076 181.551588 
L 465.235706 181.109967 
L 468.622228 180.613143 
L 470.315489 179.840307 
L 471.162119 179.177875 
L 472.00875 177.742607 
L 473.70201 177.411391 
L 474.548641 177.245783 
L 477.935162 175.589704 
L 478.781793 175.424096 
L 483.861575 173.105586 
L 484.708206 172.55356 
L 485.554836 172.222344 
L 488.094728 171.72552 
L 489.787988 170.897481 
L 490.634619 170.566265 
L 491.481249 170.45586 
L 494.867771 169.020591 
L 496.561032 167.916539 
L 497.407662 167.53012 
L 498.254293 167.419715 
L 499.100923 167.143702 
L 499.947553 167.088499 
L 503.334075 166.03965 
L 504.180706 165.984447 
L 505.027336 165.377218 
L 506.720597 164.825192 
L 509.260488 164.052355 
L 510.107118 163.555531 
L 510.953749 163.334721 
L 511.800379 162.782694 
L 512.64701 162.451479 
L 513.49364 161.954655 
L 515.186901 161.347426 
L 516.033531 161.126616 
L 519.420053 159.470537 
L 520.266684 158.587295 
L 521.113314 158.035268 
L 521.959944 157.86966 
L 523.653205 156.655203 
L 524.499836 156.489595 
L 525.346466 155.275137 
L 526.193096 154.943921 
L 527.039727 154.336692 
L 527.886357 154.226287 
L 528.732988 153.674261 
L 529.579618 153.287842 
L 530.426249 153.122234 
L 531.272879 152.791019 
L 532.119509 152.128587 
L 532.96614 151.852574 
L 535.506031 150.251698 
L 538.892553 148.650821 
L 539.739183 148.540416 
L 541.432444 147.822782 
L 542.279074 147.325958 
L 543.125705 146.001095 
L 543.972335 145.173056 
L 544.818966 144.731435 
L 545.665596 144.565827 
L 547.358857 143.57218 
L 548.205487 143.406572 
L 549.898748 142.633735 
L 552.43864 141.584885 
L 554.1319 140.480832 
L 555.825161 138.714348 
L 557.518422 137.720701 
L 558.365052 137.223877 
L 559.211683 136.395838 
L 561.751574 134.408543 
L 562.598205 133.966922 
L 563.444835 133.08368 
L 564.291465 132.476451 
L 565.984726 131.924425 
L 566.831357 131.151588 
L 568.524618 130.323549 
L 569.371248 130.102738 
L 570.217878 129.495509 
L 571.064509 129.274699 
L 573.6044 128.005038 
L 574.45103 127.397809 
L 575.297661 126.956188 
L 582.917335 124.416867 
L 583.763965 123.975246 
L 584.610596 123.257612 
L 587.997117 122.043154 
L 588.843748 121.822344 
L 589.690378 121.215115 
L 592.230269 120.111062 
L 593.0769 119.503834 
L 593.92353 119.062212 
L 595.616791 115.86046 
L 597.310052 113.983571 
L 598.156682 113.431544 
L 600.696574 112.382694 
L 601.543204 112.106681 
L 602.389834 111.996276 
L 603.236465 111.554655 
L 605.776356 110.781818 
L 608.316247 109.788171 
L 610.009508 108.573713 
L 612.549399 107.46966 
L 616.782552 105.15115 
L 617.629182 104.323111 
L 619.322443 103.439869 
L 620.169073 102.998248 
L 621.015704 102.722234 
L 621.862334 102.115005 
L 623.555595 101.342169 
L 626.095486 99.962103 
L 626.942117 99.741292 
L 627.788747 99.134064 
L 628.635377 98.802848 
L 629.482008 98.63724 
L 631.175269 97.974808 
L 633.71516 97.036364 
L 634.56179 96.429135 
L 636.255051 95.987514 
L 637.948312 95.380285 
L 638.794942 94.717853 
L 640.488203 94.22103 
L 641.334834 93.834611 
L 642.181464 93.613801 
L 643.874725 92.509748 
L 645.567986 91.792114 
L 647.261247 90.577656 
L 648.954508 90.02563 
L 649.801138 89.307996 
L 650.647768 89.142388 
L 651.494399 88.424754 
L 653.18766 87.486309 
L 654.88092 86.768675 
L 655.727551 85.940635 
L 657.420812 85.388609 
L 658.267442 85.112596 
L 659.114073 84.615772 
L 659.960703 84.505367 
L 662.500594 83.235706 
L 665.887116 82.242059 
L 667.580377 82.021249 
L 668.427007 81.690033 
L 669.273638 81.524425 
L 670.966898 80.861993 
L 671.813529 80.806791 
L 674.35342 79.978751 
L 676.046681 78.985104 
L 677.739942 77.881051 
L 682.819724 75.507338 
L 685.359616 73.906462 
L 687.052876 73.520044 
L 689.592768 72.139978 
L 692.132659 71.367141 
L 692.979289 71.035926 
L 694.67255 70.649507 
L 698.905702 69.269441 
L 700.598963 68.938226 
L 702.292224 68.496605 
L 703.138854 68.110186 
L 703.985485 67.999781 
L 705.678746 67.337349 
L 706.525376 67.226944 
L 707.372007 66.840526 
L 709.065267 66.50931 
L 709.911898 66.122892 
L 712.451789 65.570865 
L 714.14505 65.23965 
L 721.764724 63.749179 
L 722.611354 63.417963 
L 723.457985 63.36276 
L 725.997876 62.645126 
L 726.844506 62.203505 
L 728.537767 61.651479 
L 729.384398 61.596276 
L 733.61755 60.381818 
L 739.543963 58.449726 
L 740.390593 58.449726 
L 742.083854 57.8977 
L 742.930484 57.06966 
L 743.777115 56.683242 
L 745.470376 56.186418 
L 746.317006 55.855203 
L 747.163636 55.8 
L 747.163636 55.8 
" clip-path="url(#p62c5298dff)" style="fill: none; stroke: #1f77b4; stroke-width: 1.5; stroke-linecap: square"/>
   </g>
   <g id="line2d_36">
    <path d="M 139.282994 307.8 
L 141.822885 307.689595 
L 143.516146 307.579189 
L 149.442559 307.468784 
L 153.675711 307.303176 
L 157.062233 307.303176 
L 157.908863 307.082366 
L 160.448755 307.027163 
L 165.528537 306.475137 
L 178.227993 305.757503 
L 185.001037 305.647097 
L 189.234189 305.48149 
L 199.393754 305.371084 
L 203.626906 305.205476 
L 208.706689 305.095071 
L 212.09321 304.984666 
L 219.712884 304.874261 
L 222.252775 304.819058 
L 224.792667 304.763855 
L 227.332558 304.487842 
L 232.41234 304.43264 
L 234.105601 304.322234 
L 240.032014 304.211829 
L 249.344949 303.715005 
L 255.271362 303.6046 
L 256.964623 303.494195 
L 259.504514 303.38379 
L 264.584296 303.162979 
L 267.970818 303.052574 
L 270.510709 302.831763 
L 284.903426 302.003724 
L 287.443318 301.893319 
L 293.369731 301.617306 
L 295.909622 301.5069 
L 304.375926 301.065279 
L 313.688861 300.954874 
L 317.075382 300.568456 
L 318.768643 300.45805 
L 328.081578 299.740416 
L 328.928208 299.519606 
L 331.4681 299.298795 
L 333.16136 298.912377 
L 335.701252 298.857174 
L 338.241143 298.746769 
L 345.014186 297.918729 
L 349.247338 297.808324 
L 360.253534 296.980285 
L 365.333316 296.428258 
L 367.873208 296.373056 
L 368.719838 296.373056 
L 370.413099 296.152245 
L 373.799621 296.097043 
L 375.492882 295.931435 
L 377.186142 295.876232 
L 378.879403 295.600219 
L 379.726034 295.379409 
L 384.805816 295.158598 
L 389.038968 295.048193 
L 400.891794 294.385761 
L 402.585055 294.275356 
L 413.59125 293.668127 
L 419.517663 293.557722 
L 420.364294 293.392114 
L 427.137337 293.281709 
L 433.06375 293.005696 
L 442.376685 292.89529 
L 448.303098 292.619277 
L 455.076141 292.508872 
L 462.695815 292.122453 
L 467.775597 292.012048 
L 483.861575 291.073604 
L 490.634619 290.963198 
L 494.867771 290.57678 
L 496.561032 290.411172 
L 500.794184 290.355969 
L 504.180706 290.024754 
L 512.64701 289.583133 
L 517.726792 289.472727 
L 520.266684 289.417525 
L 522.806575 289.362322 
L 526.193096 289.031106 
L 532.119509 288.920701 
L 533.81277 288.644688 
L 535.506031 288.534283 
L 538.892553 288.423877 
L 540.585814 288.423877 
L 542.279074 288.147864 
L 550.745379 288.037459 
L 552.43864 287.871851 
L 555.825161 287.761446 
L 556.671792 287.540635 
L 558.365052 287.485433 
L 559.211683 287.319825 
L 561.751574 287.209419 
L 579.530813 286.16057 
L 585.457226 286.050164 
L 587.997117 285.994962 
L 596.463421 285.884556 
L 598.156682 285.663746 
L 604.929726 285.553341 
L 608.316247 285.442935 
L 614.24266 285.33253 
L 616.782552 285.11172 
L 624.402225 284.725301 
L 626.095486 284.614896 
L 629.482008 284.504491 
L 633.71516 284.394085 
L 637.948312 284.228478 
L 643.874725 284.118072 
L 647.261247 284.007667 
L 656.574181 283.897262 
L 661.653964 283.676451 
L 666.733746 283.566046 
L 669.273638 283.290033 
L 674.35342 283.23483 
L 675.200051 283.069222 
L 676.893311 282.958817 
L 680.279833 282.848412 
L 690.439398 282.738007 
L 694.67255 282.572399 
L 709.065267 282.517196 
L 710.758528 282.406791 
L 713.29842 282.351588 
L 724.304615 282.241183 
L 725.997876 282.130778 
L 735.31081 282.020372 
L 738.697332 281.909967 
L 747.163636 281.854765 
L 747.163636 281.854765 
" clip-path="url(#p62c5298dff)" style="fill: none; stroke: #ff7f0e; stroke-width: 1.5; stroke-linecap: square"/>
   </g>
   <g id="patch_3">
    <path d="M 108 320.4 
L 108 43.2 
" style="fill: none; stroke: #a9a9a9; stroke-width: 0.8; stroke-linejoin: miter; stroke-linecap: square"/>
   </g>
   <g id="patch_4">
    <path d="M 777.6 320.4 
L 777.6 43.2 
" style="fill: none"/>
   </g>
   <g id="patch_5">
    <path d="M 108 320.4 
L 777.6 320.4 
" style="fill: none; stroke: #a9a9a9; stroke-width: 0.8; stroke-linejoin: miter; stroke-linecap: square"/>
   </g>
   <g id="patch_6">
    <path d="M 108 43.2 
L 777.6 43.2 
" style="fill: none"/>
   </g>
   <g id="text_18">
    <!-- get_subscribe history -->
    <g style="fill: #a9a9a9" transform="translate(378.6075 37.2) scale(0.12 -0.12)">
     <defs>
      <path id="DejaVuSans-67" d="M 2906 1791 
Q 2906 2416 2648 2759 
Q 2391 3103 1925 3103 
Q 1463 3103 1205 2759 
Q 947 2416 947 1791 
Q 947 1169 1205 825 
Q 1463 481 1925 481 
Q 2391 481 2648 825 
Q 2906 1169 2906 1791 
z
M 3481 434 
Q 3481 -459 3084 -895 
Q 2688 -1331 1869 -1331 
Q 1566 -1331 1297 -1286 
Q 1028 -1241 775 -1147 
L 775 -588 
Q 1028 -725 1275 -790 
Q 1522 -856 1778 -856 
Q 2344 -856 2625 -561 
Q 2906 -266 2906 331 
L 2906 616 
Q 2728 306 2450 153 
Q 2172 0 1784 0 
Q 1141 0 747 490 
Q 353 981 353 1791 
Q 353 2603 747 3093 
Q 1141 3584 1784 3584 
Q 2172 3584 2450 3431 
Q 2728 3278 2906 2969 
L 2906 3500 
L 3481 3500 
L 3481 434 
z
" transform="scale(0.015625)"/>
      <path id="DejaVuSans-65" d="M 3597 1894 
L 3597 1613 
L 953 1613 
Q 991 1019 1311 708 
Q 1631 397 2203 397 
Q 2534 397 2845 478 
Q 3156 559 3463 722 
L 3463 178 
Q 3153 47 2828 -22 
Q 2503 -91 2169 -91 
Q 1331 -91 842 396 
Q 353 884 353 1716 
Q 353 2575 817 3079 
Q 1281 3584 2069 3584 
Q 2775 3584 3186 3129 
Q 3597 2675 3597 1894 
z
M 3022 2063 
Q 3016 2534 2758 2815 
Q 2500 3097 2075 3097 
Q 1594 3097 1305 2825 
Q 1016 2553 972 2059 
L 3022 2063 
z
" transform="scale(0.015625)"/>
      <path id="DejaVuSans-74" d="M 1172 4494 
L 1172 3500 
L 2356 3500 
L 2356 3053 
L 1172 3053 
L 1172 1153 
Q 1172 725 1289 603 
Q 1406 481 1766 481 
L 2356 481 
L 2356 0 
L 1766 0 
Q 1100 0 847 248 
Q 594 497 594 1153 
L 594 3053 
L 172 3053 
L 172 3500 
L 594 3500 
L 594 4494 
L 1172 4494 
z
" transform="scale(0.015625)"/>
      <path id="DejaVuSans-5f" d="M 3263 -1063 
L 3263 -1509 
L -63 -1509 
L -63 -1063 
L 3263 -1063 
z
" transform="scale(0.015625)"/>
      <path id="DejaVuSans-73" d="M 2834 3397 
L 2834 2853 
Q 2591 2978 2328 3040 
Q 2066 3103 1784 3103 
Q 1356 3103 1142 2972 
Q 928 2841 928 2578 
Q 928 2378 1081 2264 
Q 1234 2150 1697 2047 
L 1894 2003 
Q 2506 1872 2764 1633 
Q 3022 1394 3022 966 
Q 3022 478 2636 193 
Q 2250 -91 1575 -91 
Q 1294 -91 989 -36 
Q 684 19 347 128 
L 347 722 
Q 666 556 975 473 
Q 1284 391 1588 391 
Q 1994 391 2212 530 
Q 2431 669 2431 922 
Q 2431 1156 2273 1281 
Q 2116 1406 1581 1522 
L 1381 1569 
Q 847 1681 609 1914 
Q 372 2147 372 2553 
Q 372 3047 722 3315 
Q 1072 3584 1716 3584 
Q 2034 3584 2315 3537 
Q 2597 3491 2834 3397 
z
" transform="scale(0.015625)"/>
      <path id="DejaVuSans-75" d="M 544 1381 
L 544 3500 
L 1119 3500 
L 1119 1403 
Q 1119 906 1312 657 
Q 1506 409 1894 409 
Q 2359 409 2629 706 
Q 2900 1003 2900 1516 
L 2900 3500 
L 3475 3500 
L 3475 0 
L 2900 0 
L 2900 538 
Q 2691 219 2414 64 
Q 2138 -91 1772 -91 
Q 1169 -91 856 284 
Q 544 659 544 1381 
z
M 1991 3584 
L 1991 3584 
z
" transform="scale(0.015625)"/>
      <path id="DejaVuSans-62" d="M 3116 1747 
Q 3116 2381 2855 2742 
Q 2594 3103 2138 3103 
Q 1681 3103 1420 2742 
Q 1159 2381 1159 1747 
Q 1159 1113 1420 752 
Q 1681 391 2138 391 
Q 2594 391 2855 752 
Q 3116 1113 3116 1747 
z
M 1159 2969 
Q 1341 3281 1617 3432 
Q 1894 3584 2278 3584 
Q 2916 3584 3314 3078 
Q 3713 2572 3713 1747 
Q 3713 922 3314 415 
Q 2916 -91 2278 -91 
Q 1894 -91 1617 61 
Q 1341 213 1159 525 
L 1159 0 
L 581 0 
L 581 4863 
L 1159 4863 
L 1159 2969 
z
" transform="scale(0.015625)"/>
      <path id="DejaVuSans-63" d="M 3122 3366 
L 3122 2828 
Q 2878 2963 2633 3030 
Q 2388 3097 2138 3097 
Q 1578 3097 1268 2742 
Q 959 2388 959 1747 
Q 959 1106 1268 751 
Q 1578 397 2138 397 
Q 2388 397 2633 464 
Q 2878 531 3122 666 
L 3122 134 
Q 2881 22 2623 -34 
Q 2366 -91 2075 -91 
Q 1284 -91 818 406 
Q 353 903 353 1747 
Q 353 2603 823 3093 
Q 1294 3584 2113 3584 
Q 2378 3584 2631 3529 
Q 2884 3475 3122 3366 
z
" transform="scale(0.015625)"/>
      <path id="DejaVuSans-72" d="M 2631 2963 
Q 2534 3019 2420 3045 
Q 2306 3072 2169 3072 
Q 1681 3072 1420 2755 
Q 1159 2438 1159 1844 
L 1159 0 
L 581 0 
L 581 3500 
L 1159 3500 
L 1159 2956 
Q 1341 3275 1631 3429 
Q 1922 3584 2338 3584 
Q 2397 3584 2469 3576 
Q 2541 3569 2628 3553 
L 2631 2963 
z
" transform="scale(0.015625)"/>
      <path id="DejaVuSans-69" d="M 603 3500 
L 1178 3500 
L 1178 0 
L 603 0 
L 603 3500 
z
M 603 4863 
L 1178 4863 
L 1178 4134 
L 603 4134 
L 603 4863 
z
" transform="scale(0.015625)"/>
      <path id="DejaVuSans-20" transform="scale(0.015625)"/>
      <path id="DejaVuSans-68" d="M 3513 2113 
L 3513 0 
L 2938 0 
L 2938 2094 
Q 2938 2591 2744 2837 
Q 2550 3084 2163 3084 
Q 1697 3084 1428 2787 
Q 1159 2491 1159 1978 
L 1159 0 
L 581 0 
L 581 4863 
L 1159 4863 
L 1159 2956 
Q 1366 3272 1645 3428 
Q 1925 3584 2291 3584 
Q 2894 3584 3203 3211 
Q 3513 2838 3513 2113 
z
" transform="scale(0.015625)"/>
      <path id="DejaVuSans-6f" d="M 1959 3097 
Q 1497 3097 1228 2736 
Q 959 2375 959 1747 
Q 959 1119 1226 758 
Q 1494 397 1959 397 
Q 2419 397 2687 759 
Q 2956 1122 2956 1747 
Q 2956 2369 2687 2733 
Q 2419 3097 1959 3097 
z
M 1959 3584 
Q 2709 3584 3137 3096 
Q 3566 2609 3566 1747 
Q 3566 888 3137 398 
Q 2709 -91 1959 -91 
Q 1206 -91 779 398 
Q 353 888 353 1747 
Q 353 2609 779 3096 
Q 1206 3584 1959 3584 
z
" transform="scale(0.015625)"/>
      <path id="DejaVuSans-79" d="M 2059 -325 
Q 1816 -950 1584 -1140 
Q 1353 -1331 966 -1331 
L 506 -1331 
L 506 -850 
L 844 -850 
Q 1081 -850 1212 -737 
Q 1344 -625 1503 -206 
L 1606 56 
L 191 3500 
L 800 3500 
L 1894 763 
L 2988 3500 
L 3597 3500 
L 2059 -325 
z
" transform="scale(0.015625)"/>
     </defs>
     <use xlink:href="#DejaVuSans-67"/>
     <use xlink:href="#DejaVuSans-65" x="63.476562"/>
     <use xlink:href="#DejaVuSans-74" x="125"/>
     <use xlink:href="#DejaVuSans-5f" x="164.208984"/>
     <use xlink:href="#DejaVuSans-73" x="214.208984"/>
     <use xlink:href="#DejaVuSans-75" x="266.308594"/>
     <use xlink:href="#DejaVuSans-62" x="329.6875"/>
     <use xlink:href="#DejaVuSans-73" x="393.164062"/>
     <use xlink:href="#DejaVuSans-63" x="445.263672"/>
     <use xlink:href="#DejaVuSans-72" x="500.244141"/>
     <use xlink:href="#DejaVuSans-69" x="541.357422"/>
     <use xlink:href="#DejaVuSans-62" x="569.140625"/>
     <use xlink:href="#DejaVuSans-65" x="632.617188"/>
     <use xlink:href="#DejaVuSans-20" x="694.140625"/>
     <use xlink:href="#DejaVuSans-68" x="725.927734"/>
     <use xlink:href="#DejaVuSans-69" x="789.306641"/>
     <use xlink:href="#DejaVuSans-73" x="817.089844"/>
     <use xlink:href="#DejaVuSans-74" x="869.189453"/>
     <use xlink:href="#DejaVuSans-6f" x="908.398438"/>
     <use xlink:href="#DejaVuSans-72" x="969.580078"/>
     <use xlink:href="#DejaVuSans-79" x="1010.693359"/>
    </g>
   </g>
   <g id="legend_1">
    <g id="line2d_37">
     <path d="M 815.08 328.498438 
L 825.08 328.498438 
L 835.08 328.498438 
" style="fill: none; stroke: #1f77b4; stroke-width: 1.5; stroke-linecap: square"/>
    </g>
    <g id="text_19">
     <!-- star -->
     <g style="fill: #a9a9a9" transform="translate(843.08 331.998438) scale(0.1 -0.1)">
      <defs>
       <path id="DejaVuSans-61" d="M 2194 1759 
Q 1497 1759 1228 1600 
Q 959 1441 959 1056 
Q 959 750 1161 570 
Q 1363 391 1709 391 
Q 2188 391 2477 730 
Q 2766 1069 2766 1631 
L 2766 1759 
L 2194 1759 
z
M 3341 1997 
L 3341 0 
L 2766 0 
L 2766 531 
Q 2569 213 2275 61 
Q 1981 -91 1556 -91 
Q 1019 -91 701 211 
Q 384 513 384 1019 
Q 384 1609 779 1909 
Q 1175 2209 1959 2209 
L 2766 2209 
L 2766 2266 
Q 2766 2663 2505 2880 
Q 2244 3097 1772 3097 
Q 1472 3097 1187 3025 
Q 903 2953 641 2809 
L 641 3341 
Q 956 3463 1253 3523 
Q 1550 3584 1831 3584 
Q 2591 3584 2966 3190 
Q 3341 2797 3341 1997 
z
" transform="scale(0.015625)"/>
      </defs>
      <use xlink:href="#DejaVuSans-73"/>
      <use xlink:href="#DejaVuSans-74" x="52.099609"/>
      <use xlink:href="#DejaVuSans-61" x="91.308594"/>
      <use xlink:href="#DejaVuSans-72" x="152.587891"/>
     </g>
    </g>
    <g id="line2d_38">
     <path d="M 815.08 343.176562 
L 825.08 343.176562 
L 835.08 343.176562 
" style="fill: none; stroke: #ff7f0e; stroke-width: 1.5; stroke-linecap: square"/>
    </g>
    <g id="text_20">
     <!-- fork -->
     <g style="fill: #a9a9a9" transform="translate(843.08 346.676562) scale(0.1 -0.1)">
      <defs>
       <path id="DejaVuSans-66" d="M 2375 4863 
L 2375 4384 
L 1825 4384 
Q 1516 4384 1395 4259 
Q 1275 4134 1275 3809 
L 1275 3500 
L 2222 3500 
L 2222 3053 
L 1275 3053 
L 1275 0 
L 697 0 
L 697 3053 
L 147 3053 
L 147 3500 
L 697 3500 
L 697 3744 
Q 697 4328 969 4595 
Q 1241 4863 1831 4863 
L 2375 4863 
z
" transform="scale(0.015625)"/>
       <path id="DejaVuSans-6b" d="M 581 4863 
L 1159 4863 
L 1159 1991 
L 2875 3500 
L 3609 3500 
L 1753 1863 
L 3688 0 
L 2938 0 
L 1159 1709 
L 1159 0 
L 581 0 
L 581 4863 
z
" transform="scale(0.015625)"/>
      </defs>
      <use xlink:href="#DejaVuSans-66"/>
      <use xlink:href="#DejaVuSans-6f" x="35.205078"/>
      <use xlink:href="#DejaVuSans-72" x="96.386719"/>
      <use xlink:href="#DejaVuSans-6b" x="137.5"/>
     </g>
    </g>
   </g>
  </g>
 </g>
 <defs>
  <clipPath id="p62c5298dff">
   <rect x="108" y="43.2" width="669.6" height="277.2"/>
  </clipPath>
 </defs>
</svg>
